<svg width="137" height="22" viewBox="0 0 137 22" fill="none" xmlns="http://www.w3.org/2000/svg">
<path d="M13.1348 8.27512C12.5633 7.58467 11.8204 7.00929 10.8488 6.54899C9.87731 6.14623 8.90577 5.91608 7.93423 5.91608C6.6198 5.91608 5.41966 6.2613 4.33383 6.89422C3.24799 7.52713 2.39075 8.44774 1.76211 9.65603C1.13347 10.8068 0.847717 12.1877 0.847717 13.6837C0.847717 15.1796 1.13347 16.5606 1.76211 17.7688C2.39075 18.9771 3.24799 19.8977 4.33383 20.5882C5.41966 21.2786 6.6198 21.5663 7.93423 21.5663C9.07722 21.5663 10.1059 21.3362 11.0203 20.8759C11.9347 20.4156 12.6205 19.7827 13.1348 19.0347V21.3362H16.278V0.967834H13.1348V8.27512ZM12.5062 16.503C12.1061 17.3085 11.5346 17.8839 10.8488 18.2867C10.1631 18.6894 9.42011 18.9196 8.62002 18.9196C7.81993 18.9196 7.07699 18.6894 6.3912 18.2867C5.70541 17.8839 5.13392 17.251 4.67672 16.503C4.27668 15.6975 4.04808 14.7769 4.04808 13.7412C4.04808 12.7055 4.27668 11.7849 4.67672 11.0369C5.07677 10.2889 5.64826 9.71356 6.33405 9.3108C7.01984 8.90804 7.76278 8.73542 8.56287 8.73542C9.36296 8.73542 10.1059 8.90804 10.7917 9.36834C11.4775 9.7711 12.049 10.3465 12.449 11.152C12.8491 11.9 13.0777 12.8206 13.0777 13.8563C13.0777 14.892 12.9634 15.6975 12.5062 16.503Z" fill="#302C28"/>
<path d="M23.536 8.39019V6.20375H20.45V21.3362H23.536V13.3384C23.536 11.7849 23.8789 10.6917 24.4504 10.1163C25.079 9.4834 25.9934 9.19571 27.2507 9.19571H28.0508V5.9736C27.0221 5.9736 26.1077 6.20375 25.3648 6.60652C24.5647 7.00928 23.9932 7.6422 23.536 8.39019Z" fill="#302C28"/>
<path d="M41.138 6.89421C40.0522 6.26129 38.7377 5.9736 37.3661 5.9736C35.8803 5.9736 34.5658 6.31883 33.4228 6.95174C32.2798 7.58466 31.4226 8.50526 30.794 9.71355C30.1653 10.9218 29.8796 12.2452 29.8796 13.7987C29.8796 15.3522 30.2225 16.7332 30.8511 17.8839C31.4798 19.0922 32.3941 19.9553 33.5371 20.6457C34.6801 21.2786 35.9374 21.6239 37.4233 21.6239C39.1949 21.6239 40.6808 21.1636 41.8809 20.3005C43.0811 19.4374 43.8812 18.2867 44.3384 16.8482H40.9665C40.2807 18.2867 39.0806 18.9771 37.4233 18.9771C36.2803 18.9771 35.2516 18.6319 34.4515 17.8839C33.6514 17.1359 33.1942 16.1578 33.1371 14.9495H44.6241C44.6812 14.4892 44.7384 13.9713 44.7384 13.396C44.7384 11.9575 44.4526 10.6342 43.824 9.4834C43.1382 8.39018 42.281 7.46958 41.138 6.89421ZM33.0799 12.4178C33.2514 11.2671 33.7086 10.2889 34.4515 9.59848C35.1945 8.90802 36.1089 8.5628 37.1947 8.5628C38.3948 8.5628 39.3664 8.90802 40.1665 9.59848C40.9665 10.2889 41.3666 11.2095 41.4237 12.3603H33.0799V12.4178Z" fill="#302C28"/>
<path d="M53.5394 18.5168L49.3103 6.20377H45.9385L51.6535 21.3362H55.3682L61.1402 6.20377H57.8256L53.5394 18.5168Z" fill="#302C28"/>
<path d="M84.8572 6.66407C83.9428 6.14623 82.857 5.91608 81.6569 5.91608C80.571 5.91608 79.4852 6.20376 78.5708 6.7216C77.5993 7.23944 76.9135 7.98743 76.4563 8.90804C75.9419 7.9299 75.199 7.18191 74.2846 6.66407C73.3131 6.14623 72.2844 5.91608 71.0842 5.91608C70.1699 5.91608 69.3698 6.08869 68.5697 6.43392C67.7696 6.77914 67.1409 7.29698 66.6266 7.87236V6.14623H63.5405V21.2786H66.6266V12.8781C66.6266 11.4972 66.9695 10.4616 67.6553 9.7711C68.3411 9.02311 69.2555 8.67789 70.4556 8.67789C71.5986 8.67789 72.513 9.02311 73.1988 9.7711C73.8846 10.5191 74.2274 11.5548 74.2274 12.8781V21.3362H77.3135V12.8781C77.3135 11.4972 77.6564 10.4616 78.3422 9.7711C79.028 9.02311 79.9424 8.67789 81.1425 8.67789C82.3426 8.67789 83.1999 9.02311 83.8857 9.7711C84.5715 10.5191 84.9144 11.5548 84.9144 12.8781V21.3362H88.0004V12.4178C88.0004 11.0369 87.7147 9.88618 87.2003 8.90804C86.5717 7.9299 85.8287 7.18191 84.8572 6.66407Z" fill="#302C28"/>
<path d="M103.145 8.39019C102.631 7.69973 101.888 7.12436 101.03 6.66405C100.173 6.20375 99.0873 5.9736 97.9444 5.9736C96.6299 5.9736 95.4298 6.31883 94.3439 6.95174C93.2581 7.58466 92.4009 8.50526 91.7722 9.71355C91.1436 10.8643 90.8578 12.2452 90.8578 13.7412C90.8578 15.2372 91.1436 16.6181 91.7722 17.8264C92.4009 19.0347 93.2581 19.9553 94.3439 20.6457C95.4298 21.3362 96.5728 21.6239 97.8872 21.6239C99.0302 21.6239 100.116 21.3937 100.973 20.9334C101.888 20.4731 102.631 19.8402 103.145 19.1497V21.3937H106.288V6.20375H103.145V8.39019ZM102.459 16.503C102.059 17.3085 101.488 17.8839 100.802 18.2867C100.116 18.6894 99.3731 18.9196 98.573 18.9196C97.7729 18.9196 97.03 18.6894 96.3442 18.2867C95.6584 17.8839 95.0869 17.251 94.6297 16.503C94.2296 15.6975 94.0011 14.7769 94.0011 13.7412C94.0011 12.7055 94.2296 11.7849 94.6297 11.0369C95.0297 10.2889 95.6012 9.71355 96.287 9.31079C96.9728 8.90802 97.7158 8.73541 98.5159 8.73541C99.3159 8.73541 100.059 8.90803 100.745 9.36833C101.43 9.77109 102.002 10.3465 102.402 11.152C102.802 11.9 103.031 12.8206 103.031 13.8563C103.031 14.8919 102.916 15.6975 102.459 16.503Z" fill="#302C28"/>
<path d="M118.975 13.4535C118.29 13.1658 117.375 12.8781 116.289 12.5329C115.489 12.3028 114.861 12.0726 114.461 11.9575C114.06 11.7849 113.66 11.6123 113.375 11.3246C113.089 11.0369 112.917 10.6917 112.917 10.2889C112.917 9.7711 113.146 9.36834 113.546 9.02311C114.003 8.73542 114.632 8.56281 115.432 8.56281C116.289 8.56281 116.918 8.79296 117.432 9.19572C117.947 9.59849 118.175 10.1163 118.232 10.8068H121.318C121.261 9.3108 120.69 8.10251 119.661 7.23944C118.632 6.37638 117.261 5.91608 115.546 5.91608C114.403 5.91608 113.375 6.08869 112.517 6.49145C111.66 6.89422 110.974 7.41206 110.46 8.04497C109.946 8.67789 109.774 9.42588 109.774 10.2314C109.774 11.2095 110.06 12.0151 110.574 12.648C111.089 13.2809 111.717 13.6837 112.403 13.9714C113.089 14.259 114.06 14.5467 115.146 14.892C116.289 15.2372 117.147 15.5249 117.718 15.8126C118.232 16.1002 118.518 16.503 118.518 17.0784C118.518 17.5962 118.29 18.0565 117.775 18.4018C117.318 18.747 116.632 18.9196 115.718 18.9196C114.861 18.9196 114.175 18.6894 113.603 18.2867C113.032 17.8839 112.746 17.3085 112.689 16.6756H109.489C109.546 17.5962 109.831 18.4018 110.346 19.1497C110.917 19.8977 111.66 20.4731 112.575 20.9334C113.489 21.3362 114.575 21.5663 115.775 21.5663C116.918 21.5663 117.947 21.3937 118.804 20.991C119.661 20.5882 120.347 20.0704 120.804 19.3799C121.261 18.6894 121.49 17.9415 121.49 17.0784C121.49 16.1002 121.204 15.3523 120.69 14.7193C120.29 14.2015 119.661 13.7412 118.975 13.4535Z" fill="#302C28"/>
<path d="M135.377 14.7769C134.863 14.2015 134.234 13.7412 133.548 13.4535C132.863 13.1658 131.948 12.8781 130.862 12.5329C130.062 12.3028 129.434 12.0726 129.034 11.9575C128.634 11.7849 128.233 11.6123 127.948 11.3246C127.662 11.0369 127.491 10.6917 127.491 10.2889C127.491 9.7711 127.719 9.36834 128.119 9.02311C128.576 8.73542 129.205 8.56281 130.005 8.56281C130.862 8.56281 131.491 8.79296 132.005 9.19572C132.52 9.59849 132.748 10.1163 132.805 10.8068H135.892C135.834 9.3108 135.263 8.10251 134.234 7.23944C133.205 6.37638 131.834 5.91608 130.119 5.91608C128.976 5.91608 127.948 6.08869 127.091 6.49145C126.233 6.89422 125.547 7.41206 125.033 8.04497C124.576 8.73542 124.347 9.42588 124.347 10.2314C124.347 11.2095 124.633 12.0151 125.147 12.648C125.662 13.2809 126.29 13.6837 126.976 13.9714C127.662 14.259 128.634 14.5467 129.719 14.892C130.862 15.2372 131.72 15.5249 132.291 15.8126C132.805 16.1002 133.091 16.503 133.091 17.0784C133.091 17.5962 132.863 18.0565 132.348 18.4018C131.891 18.747 131.205 18.9196 130.291 18.9196C129.434 18.9196 128.748 18.6894 128.176 18.2867C127.605 17.8839 127.319 17.3085 127.262 16.6756H124.062C124.119 17.5962 124.404 18.4018 124.919 19.1497C125.49 19.8977 126.233 20.4731 127.148 20.9334C128.062 21.3362 129.148 21.5663 130.348 21.5663C131.491 21.5663 132.52 21.3937 133.377 20.991C134.234 20.5882 134.92 20.0704 135.377 19.3799C135.834 18.6894 136.063 17.9415 136.063 17.0784C136.177 16.1578 135.892 15.3523 135.377 14.7769Z" fill="#302C28"/>
</svg>
