<svg width="46" height="40" viewBox="0 0 46 40" fill="none" xmlns="http://www.w3.org/2000/svg">
<path d="M35.4448 36.3743C34.6339 37.7193 33.2439 38.4795 31.6802 38.4795H31.3327C30.2902 38.4795 29.3635 37.7778 29.0161 36.7836C28.7844 36.1404 28.6106 35.4971 28.379 34.8538C27.4523 31.0526 27.3944 28.7134 28.2631 27.4854C29.074 26.2573 30.9273 26.0234 33.4177 25.731C35.966 25.3801 39.2672 24.9708 42.6264 23.1579C42.916 22.9825 43.2635 23.3333 43.0897 23.6257L35.4448 36.3743ZM10.5408 36.3743L2.08499 22.2807C1.44791 21.2281 1.27416 19.9415 1.62166 18.7719C1.67957 18.4795 2.02707 18.4211 2.25873 18.655C4.51747 21.462 7.41328 23.3333 10.8303 24.3275C13.2628 25.0292 15.0003 26.3158 16.0428 28.1287C17.1432 30.1754 17.3749 32.9825 16.7378 36.4327C16.5061 37.6023 15.5216 38.4795 14.3053 38.4795C12.7995 38.4795 11.3516 37.6608 10.5408 36.3743ZM17.317 27.4269C16.1007 25.2632 14.0737 23.7427 11.2358 22.924C8.16619 22.0468 5.61788 20.4094 3.59081 17.9532C3.01165 17.3099 2.95373 16.3158 3.41706 15.5556L6.37079 10.5263C6.54454 10.2339 7.00787 10.2339 7.18162 10.5263C8.39786 12.5146 10.3091 14.0936 12.3362 15.7895C15.6374 18.5965 19.0545 21.462 19.0545 26.3158C19.0545 27.3684 18.8807 28.7134 18.5911 30.2924C18.5332 30.4678 18.3595 30.4678 18.3015 30.2924C18.1278 29.2398 17.7803 28.2456 17.317 27.4269ZM10.5408 3.62573C10.8883 3.04094 11.3516 2.5731 11.8728 2.22222C12.1624 1.9883 12.6257 2.22222 12.6837 2.5731C13.147 5.61403 14.1316 7.77778 15.8111 9.4152C16.3324 9.94152 16.8536 10.4094 17.317 10.8772C21.1394 14.6199 22.2978 15.731 22.2978 28.4795V37.4269C22.2978 38.0117 21.8344 38.4211 21.3132 38.4211H18.649C18.3015 38.4211 18.012 38.0702 18.1278 37.7193C19.344 33.9181 20.5603 29.2982 20.5603 26.2573C20.5603 20.7018 16.6799 17.4854 13.3207 14.6199C11.4095 13.0409 9.6141 11.5205 8.51369 9.7076C8.05036 8.88889 7.99245 7.89474 8.51369 7.07602L10.5408 3.62573ZM23.3403 1.46199C23.6878 1.46199 24.0353 1.81287 23.9773 2.16374C23.5719 7.07602 22.2978 9.29825 21.3711 10.8187C21.1394 11.1696 20.9657 11.5205 20.7919 11.8129C20.6761 12.0468 20.3865 12.0468 20.2707 11.8713C19.6915 11.2281 18.9965 10.5263 18.2436 9.82456C17.7803 9.35672 17.317 8.88889 16.7957 8.36257C15.2899 6.8421 14.4212 4.8538 14.0157 1.92982C13.9578 1.69591 14.1895 1.46199 14.4212 1.46199C16.3903 1.46199 23.3403 1.46199 23.3403 1.46199ZM32.4331 1.52047C32.8385 1.57895 33.0702 1.9883 32.9544 2.33918C32.2594 4.73684 31.0431 6.78363 29.2477 8.36257C29.0161 8.59649 28.7844 8.77193 28.5527 8.94737C26.2361 10.9942 24.2669 12.6901 23.2244 17.4269C23.2244 17.5439 23.0507 17.5439 22.9928 17.4269C22.7611 16.1988 22.4136 15.2632 22.0082 14.386C21.6028 13.3333 21.9503 12.7485 22.6453 11.5205C23.5719 9.88304 24.9619 7.54386 25.4252 2.39766C25.4832 1.87134 25.9465 1.40351 26.4677 1.40351H31.6802C31.9119 1.46199 32.2014 1.52047 32.4331 1.52047ZM35.4448 3.62573L38.1089 8.0117C38.5722 8.71345 38.2827 9.7076 37.5297 10.0585C31.854 12.8655 26.0623 17.7778 25.4832 26.2573C25.2515 29.3567 26.5257 33.9181 27.7998 37.7778C27.9156 38.1287 27.684 38.4795 27.2786 38.4795H24.7302C24.1511 38.4795 23.7457 38.0117 23.7457 37.4854V28.538C23.7457 15.2047 26.0623 13.1579 29.4794 10.117C29.711 9.94152 29.9427 9.7076 30.1744 9.47368C32.0856 7.77778 33.4756 5.61403 34.2285 3.04094C34.2864 2.74854 34.6339 2.69006 34.8656 2.8655C35.0973 3.09942 35.271 3.33333 35.4448 3.62573ZM43.9005 17.7193C44.5955 18.8889 44.248 20.4094 43.0897 21.1696C39.5568 23.4503 36.0818 23.9181 33.186 24.269C30.5219 24.6199 28.2631 24.9123 27.0469 26.6667C26.989 26.7251 26.8732 26.5497 26.8732 26.3743C27.4523 18.1287 33.4756 13.5088 38.9777 10.9357C39.3251 10.7602 39.7885 10.9357 40.0201 11.2865L43.9005 17.7193ZM45.1747 16.9006L36.661 2.8655C36.1977 2.04678 35.5027 1.40351 34.7498 0.935672H34.6918C33.7652 0.292398 32.7806 0 31.6802 0H14.3053C12.2782 0 10.367 1.11111 9.32452 2.8655L0.868744 16.9006C-0.289581 18.7719 -0.289581 21.1111 0.868744 23.0409L9.32452 37.1345C10.367 38.8889 12.2782 40 14.3053 40H31.6802C33.7073 40 35.6185 38.8889 36.661 37.1345L45.1747 23.0409C46.2751 21.1696 46.2751 18.8304 45.1747 16.9006Z" fill="#B5A380"/>
</svg>
