<svg width="24" height="24" viewBox="0 0 24 24" fill="none" xmlns="http://www.w3.org/2000/svg">
<path fill-rule="evenodd" clip-rule="evenodd" d="M7.79601 7.00031C7.79601 4.79094 9.58693 3 11.796 3C14.0051 3 15.796 4.79094 15.796 7.00031C15.796 9.20968 14.0051 11.0006 11.796 11.0006C9.58693 11.0006 7.79601 9.20968 7.79601 7.00031ZM11.796 1C8.48224 1 5.79601 3.68649 5.79601 7.00031C5.79601 10.3141 8.48224 13.0006 11.796 13.0006C15.1098 13.0006 17.796 10.3141 17.796 7.00031C17.796 3.68649 15.1098 1 11.796 1ZM11.9985 14C8.2396 14 4.89167 15.8411 3.35418 18.6465C2.73438 19.7774 2.98297 20.9403 3.67504 21.7556C4.33526 22.5333 5.38498 23 6.48354 23H17.5135C18.6121 23 19.6618 22.5333 20.322 21.7556C21.0141 20.9403 21.2627 19.7774 20.6429 18.6465C19.1054 15.8411 15.7575 14 11.9985 14ZM5.10804 19.6077C6.23919 17.5438 8.84732 16 11.9985 16C15.1497 16 17.7579 17.5438 18.889 19.6077C19.0655 19.9298 19.0163 20.2033 18.7973 20.4612C18.5465 20.7567 18.0718 21 17.5135 21H6.48354C5.92524 21 5.45059 20.7567 5.19973 20.4612C4.98073 20.2033 4.93153 19.9298 5.10804 19.6077Z" fill="#A2A2A2"/>
</svg>
