<svg width="65" height="57" viewBox="0 0 65 57" fill="none" xmlns="http://www.w3.org/2000/svg">
<path d="M49.9088 50.9985C48.7671 52.8843 46.8099 53.9502 44.608 53.9502H44.1187C42.6508 53.9502 41.346 52.9663 40.8567 51.5725C40.5305 50.6706 40.2859 49.7687 39.9597 48.8668C38.6548 43.5373 38.5733 40.2577 39.7966 38.5359C40.9383 36.8141 43.5479 36.4861 47.0545 36.0761C50.6427 35.5842 55.2911 35.0102 60.021 32.4685C60.4288 32.2225 60.9181 32.7145 60.6734 33.1245L49.9088 50.9985ZM14.8422 50.9985L2.93581 31.2387C2.03876 29.7628 1.79411 27.959 2.28341 26.3192C2.36496 25.9092 2.85426 25.8272 3.18046 26.1552C6.36092 30.0908 10.4384 32.7145 15.2499 34.1083C18.675 35.0922 21.1215 36.896 22.5894 39.4378C24.1389 42.3075 24.4651 46.243 23.568 51.0805C23.2418 52.7203 21.8555 53.9502 20.1429 53.9502C18.0226 53.9502 15.9839 52.8023 14.8422 50.9985ZM24.3835 38.4539C22.671 35.4202 19.8167 33.2884 15.8208 32.1406C11.4986 30.9107 7.91038 28.6149 5.05612 25.1713C4.24062 24.2694 4.15907 22.8755 4.81147 21.8097L8.97053 14.7584C9.21519 14.3485 9.86759 14.3485 10.1122 14.7584C11.8248 17.5461 14.516 19.7599 17.3702 22.1376C22.0186 26.0732 26.8301 30.0908 26.8301 36.896C26.8301 38.3719 26.5854 40.2577 26.1776 42.4714C26.0961 42.7174 25.8514 42.7174 25.7699 42.4714C25.5252 40.9956 25.0359 39.6018 24.3835 38.4539ZM14.8422 5.08346C15.3315 4.26354 15.9839 3.60761 16.7178 3.11567C17.1256 2.7877 17.778 3.11567 17.8595 3.60761C18.5119 7.87116 19.8983 10.9048 22.2632 13.2006C22.9972 13.9385 23.7311 14.5944 24.3835 15.2504C29.7659 20.4978 31.3969 22.0556 31.3969 39.9297V52.4744C31.3969 53.2943 30.7445 53.8682 30.0105 53.8682H26.2592C25.7699 53.8682 25.3621 53.3763 25.5252 52.8843C27.2378 47.5549 28.9504 41.0776 28.9504 36.8141C28.9504 29.0249 23.4865 24.5154 18.7566 20.4978C16.0654 18.284 13.5374 16.1523 11.9879 13.6105C11.3355 12.4627 11.2539 11.0688 11.9879 9.92094L14.8422 5.08346ZM32.8648 2.04978C33.3541 2.04978 33.8434 2.54173 33.7618 3.03367C33.191 9.92094 31.3969 13.0366 30.0921 15.1684C29.7659 15.6603 29.5212 16.1523 29.2766 16.5622C29.1135 16.8902 28.7057 16.8902 28.5426 16.6442C27.7271 15.7423 26.7485 14.7584 25.6883 13.7745C25.0359 13.1186 24.3835 12.4627 23.6496 11.7247C21.5293 9.59297 20.306 6.80527 19.7352 2.70571C19.6536 2.37775 19.9798 2.04978 20.306 2.04978C23.0787 2.04978 32.8648 2.04978 32.8648 2.04978ZM45.6682 2.13177C46.239 2.21376 46.5652 2.7877 46.4021 3.27965C45.4235 6.64129 43.711 9.51098 41.1829 11.7247C40.8567 12.0527 40.5305 12.2987 40.2043 12.5447C36.9423 15.4143 34.1696 17.7921 32.7017 24.4334C32.7017 24.5974 32.457 24.5974 32.3755 24.4334C32.0493 22.7116 31.56 21.3997 30.9891 20.1698C30.4183 18.694 30.9076 17.8741 31.8862 16.1523C33.191 13.8565 35.1482 10.5769 35.8006 3.36164C35.8821 2.62372 36.5345 1.96779 37.2685 1.96779H44.608C44.9342 2.04978 45.342 2.13177 45.6682 2.13177ZM49.9088 5.08346L53.6601 11.2328C54.3125 12.2167 53.9048 13.6105 52.8446 14.1025C44.8527 18.0381 36.6976 24.9253 35.8821 36.8141C35.5559 41.1596 37.35 47.5549 39.1441 52.9663C39.3073 53.4583 38.981 53.9502 38.4102 53.9502H34.822C34.0065 53.9502 33.4356 53.2943 33.4356 52.5564V40.0117C33.4356 21.3177 36.6976 18.448 41.5091 14.1845C41.8353 13.9385 42.1615 13.6105 42.4877 13.2826C45.1789 10.9048 47.1361 7.87116 48.1962 4.26354C48.2778 3.85359 48.7671 3.7716 49.0933 4.01757C49.4195 4.34553 49.6641 4.6735 49.9088 5.08346ZM61.8151 24.8433C62.7937 26.4832 62.3044 28.6149 60.6734 29.6808C55.6989 32.8785 50.8058 33.5344 46.7283 34.0264C42.977 34.5183 39.7966 34.9283 38.084 37.388C38.0024 37.47 37.8393 37.224 37.8393 36.978C38.6549 25.4173 47.1361 18.94 54.8834 15.3324C55.3727 15.0864 56.0251 15.3324 56.3513 15.8243L61.8151 24.8433ZM63.6092 23.6955L51.6213 4.01757C50.9689 2.86969 49.9903 1.96779 48.9302 1.31186H48.8486C47.5438 0.409956 46.1575 0 44.608 0H20.1429C17.2887 0 14.5975 1.55783 13.1296 4.01757L1.22325 23.6955C-0.407752 26.3192 -0.407752 29.5988 1.22325 32.3045L13.1296 52.0644C14.5975 54.5242 17.2887 56.082 20.1429 56.082H44.608C47.4623 56.082 50.1534 54.5242 51.6213 52.0644L63.6092 32.3045C65.1587 29.6808 65.1587 26.4012 63.6092 23.6955Z" fill="white"/>
</svg>
